<?xml version="1.0" encoding="UTF-8" standalone="no"?>
<!DOCTYPE svg PUBLIC "-//W3C//DTD SVG 1.1//EN"
 "http://www.w3.org/Graphics/SVG/1.1/DTD/svg11.dtd">
<!-- Generated by graphviz version 9.0.0 (20230911.1827)
 -->
<!-- Title: CG Pages: 1 -->
<svg width="1654pt" height="1286pt"
 viewBox="0.00 0.00 1653.75 1286.11" xmlns="http://www.w3.org/2000/svg" xmlns:xlink="http://www.w3.org/1999/xlink">
<g id="graph0" class="graph" transform="scale(1 1) rotate(0) translate(4 1282.11)">
<title>CG</title>
<polygon fill="white" stroke="none" points="-4,4 -4,-1282.11 1649.75,-1282.11 1649.75,4 -4,4"/>
<text text-anchor="middle" x="822.88" y="-1260.81" font-family="Times,serif" font-size="14.00">Call Graph</text>
<g id="clust1" class="cluster">
<title>cluster_0</title>
<polygon fill="#cccccc" stroke="black" points="350.75,-273.61 350.75,-782.61 1415.5,-782.61 1415.5,-273.61 350.75,-273.61"/>
<text text-anchor="middle" x="883.12" y="-765.31" font-family="Times,serif" font-size="14.00">examples/chunk_preprocessed.c</text>
</g>
<g id="clust2" class="cluster">
<title>cluster_1</title>
<polygon fill="#cccccc" stroke="black" points="8,-790.61 8,-1245.61 502.38,-1245.61 502.38,-790.61 8,-790.61"/>
<text text-anchor="middle" x="255.19" y="-1228.31" font-family="Times,serif" font-size="14.00">examples/chunkset_preprocessed.c</text>
</g>
<g id="clust3" class="cluster">
<title>cluster_2</title>
<polygon fill="#cccccc" stroke="black" points="343.25,-188.61 343.25,-265.61 526.25,-265.61 526.25,-188.61 343.25,-188.61"/>
<text text-anchor="middle" x="434.75" y="-248.31" font-family="Times,serif" font-size="14.00">examples/hash_preprocessed.c</text>
</g>
<g id="clust4" class="cluster">
<title>cluster_3</title>
<polygon fill="#cccccc" stroke="black" points="595.38,-790.61 595.38,-867.61 895,-867.61 895,-790.61 595.38,-790.61"/>
<text text-anchor="middle" x="745.19" y="-850.31" font-family="Times,serif" font-size="14.00">examples/prime_preprocessed.c</text>
</g>
<g id="clust5" class="cluster">
<title>cluster_4</title>
<polygon fill="#cccccc" stroke="black" points="1435.5,-613.61 1435.5,-744.61 1645.75,-744.61 1645.75,-613.61 1435.5,-613.61"/>
<text text-anchor="middle" x="1540.62" y="-727.31" font-family="Times,serif" font-size="14.00">examples/reallocate_preprocessed.c</text>
</g>
<!-- examples/chunk_preprocessed.c::getLast_chunk() -->
<g id="node1" class="node">
<title>examples/chunk_preprocessed.c::getLast_chunk()</title>
<path fill="#eeeeee" stroke="black" d="M474.5,-641.61C474.5,-641.61 394,-641.61 394,-641.61 388,-641.61 382,-635.61 382,-629.61 382,-629.61 382,-617.61 382,-617.61 382,-611.61 388,-605.61 394,-605.61 394,-605.61 474.5,-605.61 474.5,-605.61 480.5,-605.61 486.5,-611.61 486.5,-617.61 486.5,-617.61 486.5,-629.61 486.5,-629.61 486.5,-635.61 480.5,-641.61 474.5,-641.61"/>
<text text-anchor="middle" x="434.25" y="-618.56" font-family="Times,serif" font-size="14.00">getLast_chunk()</text>
</g>
<!-- examples/chunk_preprocessed.c::get_chunk() -->
<g id="node20" class="node">
<title>examples/chunk_preprocessed.c::get_chunk()</title>
<path fill="#eeeeee" stroke="black" d="M672.62,-551.61C672.62,-551.61 615.38,-551.61 615.38,-551.61 609.38,-551.61 603.38,-545.61 603.38,-539.61 603.38,-539.61 603.38,-527.61 603.38,-527.61 603.38,-521.61 609.38,-515.61 615.38,-515.61 615.38,-515.61 672.62,-515.61 672.62,-515.61 678.62,-515.61 684.62,-521.61 684.62,-527.61 684.62,-527.61 684.62,-539.61 684.62,-539.61 684.62,-545.61 678.62,-551.61 672.62,-551.61"/>
<text text-anchor="middle" x="644" y="-528.56" font-family="Times,serif" font-size="14.00">get_chunk()</text>
</g>
<!-- examples/chunk_preprocessed.c::getLast_chunk()&#45;&#45;examples/chunk_preprocessed.c::get_chunk() -->
<g id="edge1" class="edge">
<title>examples/chunk_preprocessed.c::getLast_chunk()&#45;&#45;examples/chunk_preprocessed.c::get_chunk()</title>
<path fill="none" stroke="black" d="M486.91,-610.3C499.93,-606.4 513.76,-601.77 526.25,-596.61 552.83,-585.64 581.26,-570.38 603.41,-557.63"/>
<polygon fill="black" stroke="black" points="604.93,-560.79 611.81,-552.73 601.41,-554.74 604.93,-560.79"/>
</g>
<!-- examples/chunk_preprocessed.c::getFirst_chunk() -->
<g id="node2" class="node">
<title>examples/chunk_preprocessed.c::getFirst_chunk()</title>
<path fill="#eeeeee" stroke="black" d="M475.25,-695.61C475.25,-695.61 393.25,-695.61 393.25,-695.61 387.25,-695.61 381.25,-689.61 381.25,-683.61 381.25,-683.61 381.25,-671.61 381.25,-671.61 381.25,-665.61 387.25,-659.61 393.25,-659.61 393.25,-659.61 475.25,-659.61 475.25,-659.61 481.25,-659.61 487.25,-665.61 487.25,-671.61 487.25,-671.61 487.25,-683.61 487.25,-683.61 487.25,-689.61 481.25,-695.61 475.25,-695.61"/>
<text text-anchor="middle" x="434.25" y="-672.56" font-family="Times,serif" font-size="14.00">getFirst_chunk()</text>
</g>
<!-- examples/chunk_preprocessed.c::getFirst_chunk()&#45;&#45;examples/chunk_preprocessed.c::get_chunk() -->
<g id="edge2" class="edge">
<title>examples/chunk_preprocessed.c::getFirst_chunk()&#45;&#45;examples/chunk_preprocessed.c::get_chunk()</title>
<path fill="none" stroke="black" d="M487.56,-669.24C501.14,-665.24 515.08,-659.33 526.25,-650.61 550.68,-631.56 540.71,-613.36 561.75,-590.61 573.05,-578.4 587.39,-567.29 600.86,-558.19"/>
<polygon fill="black" stroke="black" points="602.73,-561.15 609.19,-552.76 598.91,-555.29 602.73,-561.15"/>
</g>
<!-- examples/chunk_preprocessed.c::splitLast_chunk() -->
<g id="node3" class="node">
<title>examples/chunk_preprocessed.c::splitLast_chunk()</title>
<path fill="#eeeeee" stroke="black" d="M897.12,-718.61C897.12,-718.61 809.88,-718.61 809.88,-718.61 803.88,-718.61 797.88,-712.61 797.88,-706.61 797.88,-706.61 797.88,-694.61 797.88,-694.61 797.88,-688.61 803.88,-682.61 809.88,-682.61 809.88,-682.61 897.12,-682.61 897.12,-682.61 903.12,-682.61 909.12,-688.61 909.12,-694.61 909.12,-694.61 909.12,-706.61 909.12,-706.61 909.12,-712.61 903.12,-718.61 897.12,-718.61"/>
<text text-anchor="middle" x="853.5" y="-695.56" font-family="Times,serif" font-size="14.00">splitLast_chunk()</text>
</g>
<!-- examples/reallocate_preprocessed.c::_reallocate() -->
<g id="node36" class="node">
<title>examples/reallocate_preprocessed.c::_reallocate()</title>
<path fill="#eeeeee" stroke="black" d="M1570.75,-657.61C1570.75,-657.61 1510.5,-657.61 1510.5,-657.61 1504.5,-657.61 1498.5,-651.61 1498.5,-645.61 1498.5,-645.61 1498.5,-633.61 1498.5,-633.61 1498.5,-627.61 1504.5,-621.61 1510.5,-621.61 1510.5,-621.61 1570.75,-621.61 1570.75,-621.61 1576.75,-621.61 1582.75,-627.61 1582.75,-633.61 1582.75,-633.61 1582.75,-645.61 1582.75,-645.61 1582.75,-651.61 1576.75,-657.61 1570.75,-657.61"/>
<text text-anchor="middle" x="1540.62" y="-634.56" font-family="Times,serif" font-size="14.00">_reallocate()</text>
</g>
<!-- examples/chunk_preprocessed.c::splitLast_chunk()&#45;&#45;examples/reallocate_preprocessed.c::_reallocate() -->
<g id="edge3" class="edge">
<title>examples/chunk_preprocessed.c::splitLast_chunk()&#45;&#45;examples/reallocate_preprocessed.c::_reallocate()</title>
<path fill="none" stroke="black" stroke-dasharray="5,2" d="M909.47,-699.02C983.59,-696.6 1119.67,-691.25 1235.5,-681.61 1315.77,-674.94 1335.77,-672 1415.5,-660.61 1438.99,-657.26 1464.88,-652.97 1486.91,-649.15"/>
<polygon fill="black" stroke="black" points="1487.31,-652.63 1496.56,-647.46 1486.11,-645.74 1487.31,-652.63"/>
</g>
<!-- examples/chunk_preprocessed.c::fromStreamAsWhole_chunk() -->
<g id="node4" class="node">
<title>examples/chunk_preprocessed.c::fromStreamAsWhole_chunk()</title>
<path fill="#eeeeee" stroke="black" d="M932.75,-635.61C932.75,-635.61 774.25,-635.61 774.25,-635.61 768.25,-635.61 762.25,-629.61 762.25,-623.61 762.25,-623.61 762.25,-611.61 762.25,-611.61 762.25,-605.61 768.25,-599.61 774.25,-599.61 774.25,-599.61 932.75,-599.61 932.75,-599.61 938.75,-599.61 944.75,-605.61 944.75,-611.61 944.75,-611.61 944.75,-623.61 944.75,-623.61 944.75,-629.61 938.75,-635.61 932.75,-635.61"/>
<text text-anchor="middle" x="853.5" y="-612.56" font-family="Times,serif" font-size="14.00">fromStreamAsWhole_chunk()</text>
</g>
<!-- examples/chunk_preprocessed.c::appendSpace_chunk() -->
<g id="node10" class="node">
<title>examples/chunk_preprocessed.c::appendSpace_chunk()</title>
<path fill="#eeeeee" stroke="black" d="M1395.5,-634.61C1395.5,-634.61 1283.5,-634.61 1283.5,-634.61 1277.5,-634.61 1271.5,-628.61 1271.5,-622.61 1271.5,-622.61 1271.5,-610.61 1271.5,-610.61 1271.5,-604.61 1277.5,-598.61 1283.5,-598.61 1283.5,-598.61 1395.5,-598.61 1395.5,-598.61 1401.5,-598.61 1407.5,-604.61 1407.5,-610.61 1407.5,-610.61 1407.5,-622.61 1407.5,-622.61 1407.5,-628.61 1401.5,-634.61 1395.5,-634.61"/>
<text text-anchor="middle" x="1339.5" y="-611.56" font-family="Times,serif" font-size="14.00">appendSpace_chunk()</text>
</g>
<!-- examples/chunk_preprocessed.c::fromStreamAsWhole_chunk()&#45;&#45;examples/chunk_preprocessed.c::appendSpace_chunk() -->
<g id="edge4" class="edge">
<title>examples/chunk_preprocessed.c::fromStreamAsWhole_chunk()&#45;&#45;examples/chunk_preprocessed.c::appendSpace_chunk()</title>
<path fill="none" stroke="black" d="M944.97,-617.43C1035.57,-617.24 1173.58,-616.96 1259.79,-616.78"/>
<polygon fill="black" stroke="black" points="1259.57,-620.28 1269.56,-616.76 1259.56,-613.28 1259.57,-620.28"/>
</g>
<!-- examples/chunk_preprocessed.c::add_chunk() -->
<g id="node18" class="node">
<title>examples/chunk_preprocessed.c::add_chunk()</title>
<path fill="#eeeeee" stroke="black" d="M1053,-598.61C1053,-598.61 992.75,-598.61 992.75,-598.61 986.75,-598.61 980.75,-592.61 980.75,-586.61 980.75,-586.61 980.75,-574.61 980.75,-574.61 980.75,-568.61 986.75,-562.61 992.75,-562.61 992.75,-562.61 1053,-562.61 1053,-562.61 1059,-562.61 1065,-568.61 1065,-574.61 1065,-574.61 1065,-586.61 1065,-586.61 1065,-592.61 1059,-598.61 1053,-598.61"/>
<text text-anchor="middle" x="1022.88" y="-575.56" font-family="Times,serif" font-size="14.00">add_chunk()</text>
</g>
<!-- examples/chunk_preprocessed.c::fromStreamAsWhole_chunk()&#45;&#45;examples/chunk_preprocessed.c::add_chunk() -->
<g id="edge5" class="edge">
<title>examples/chunk_preprocessed.c::fromStreamAsWhole_chunk()&#45;&#45;examples/chunk_preprocessed.c::add_chunk()</title>
<path fill="none" stroke="black" d="M938.19,-599.11C948.88,-596.75 959.56,-594.39 969.55,-592.18"/>
<polygon fill="black" stroke="black" points="970.01,-595.66 979.02,-590.09 968.5,-588.83 970.01,-595.66"/>
</g>
<!-- examples/chunk_preprocessed.c::fromFileAsWhole_chunk() -->
<g id="node5" class="node">
<title>examples/chunk_preprocessed.c::fromFileAsWhole_chunk()</title>
<path fill="#eeeeee" stroke="black" d="M714.25,-635.61C714.25,-635.61 573.75,-635.61 573.75,-635.61 567.75,-635.61 561.75,-629.61 561.75,-623.61 561.75,-623.61 561.75,-611.61 561.75,-611.61 561.75,-605.61 567.75,-599.61 573.75,-599.61 573.75,-599.61 714.25,-599.61 714.25,-599.61 720.25,-599.61 726.25,-605.61 726.25,-611.61 726.25,-611.61 726.25,-623.61 726.25,-623.61 726.25,-629.61 720.25,-635.61 714.25,-635.61"/>
<text text-anchor="middle" x="644" y="-612.56" font-family="Times,serif" font-size="14.00">fromFileAsWhole_chunk()</text>
</g>
<!-- examples/chunk_preprocessed.c::fromFileAsWhole_chunk()&#45;&#45;examples/chunk_preprocessed.c::fromStreamAsWhole_chunk() -->
<g id="edge6" class="edge">
<title>examples/chunk_preprocessed.c::fromFileAsWhole_chunk()&#45;&#45;examples/chunk_preprocessed.c::fromStreamAsWhole_chunk()</title>
<path fill="none" stroke="black" d="M726.71,-617.61C734.57,-617.61 742.61,-617.61 750.64,-617.61"/>
<polygon fill="black" stroke="black" points="750.44,-621.11 760.44,-617.61 750.44,-614.11 750.44,-621.11"/>
</g>
<!-- examples/chunk_preprocessed.c::fromStream_chunk() -->
<g id="node6" class="node">
<title>examples/chunk_preprocessed.c::fromStream_chunk()</title>
<path fill="#eeeeee" stroke="black" d="M697.38,-718.61C697.38,-718.61 590.62,-718.61 590.62,-718.61 584.62,-718.61 578.62,-712.61 578.62,-706.61 578.62,-706.61 578.62,-694.61 578.62,-694.61 578.62,-688.61 584.62,-682.61 590.62,-682.61 590.62,-682.61 697.38,-682.61 697.38,-682.61 703.38,-682.61 709.38,-688.61 709.38,-694.61 709.38,-694.61 709.38,-706.61 709.38,-706.61 709.38,-712.61 703.38,-718.61 697.38,-718.61"/>
<text text-anchor="middle" x="644" y="-695.56" font-family="Times,serif" font-size="14.00">fromStream_chunk()</text>
</g>
<!-- examples/chunk_preprocessed.c::fromStream_chunk()&#45;&#45;examples/chunk_preprocessed.c::splitLast_chunk() -->
<g id="edge7" class="edge">
<title>examples/chunk_preprocessed.c::fromStream_chunk()&#45;&#45;examples/chunk_preprocessed.c::splitLast_chunk()</title>
<path fill="none" stroke="black" d="M709.8,-700.61C734.13,-700.61 761.8,-700.61 786.26,-700.61"/>
<polygon fill="black" stroke="black" points="786.1,-704.11 796.1,-700.61 786.1,-697.11 786.1,-704.11"/>
</g>
<!-- examples/chunk_preprocessed.c::fromStream_chunk()&#45;&#45;examples/chunk_preprocessed.c::fromStreamAsWhole_chunk() -->
<g id="edge8" class="edge">
<title>examples/chunk_preprocessed.c::fromStream_chunk()&#45;&#45;examples/chunk_preprocessed.c::fromStreamAsWhole_chunk()</title>
<path fill="none" stroke="black" d="M691.05,-682.19C722.08,-669.78 763.2,-653.33 796.18,-640.14"/>
<polygon fill="black" stroke="black" points="797.19,-643.51 805.17,-636.55 794.59,-637.01 797.19,-643.51"/>
</g>
<!-- examples/chunk_preprocessed.c::fromFile_chunk() -->
<g id="node7" class="node">
<title>examples/chunk_preprocessed.c::fromFile_chunk()</title>
<path fill="#eeeeee" stroke="black" d="M478.62,-749.61C478.62,-749.61 389.88,-749.61 389.88,-749.61 383.88,-749.61 377.88,-743.61 377.88,-737.61 377.88,-737.61 377.88,-725.61 377.88,-725.61 377.88,-719.61 383.88,-713.61 389.88,-713.61 389.88,-713.61 478.62,-713.61 478.62,-713.61 484.62,-713.61 490.62,-719.61 490.62,-725.61 490.62,-725.61 490.62,-737.61 490.62,-737.61 490.62,-743.61 484.62,-749.61 478.62,-749.61"/>
<text text-anchor="middle" x="434.25" y="-726.56" font-family="Times,serif" font-size="14.00">fromFile_chunk()</text>
</g>
<!-- examples/chunk_preprocessed.c::fromFile_chunk()&#45;&#45;examples/chunk_preprocessed.c::fromStream_chunk() -->
<g id="edge9" class="edge">
<title>examples/chunk_preprocessed.c::fromFile_chunk()&#45;&#45;examples/chunk_preprocessed.c::fromStream_chunk()</title>
<path fill="none" stroke="black" d="M490.92,-723.31C514.27,-719.82 541.79,-715.72 566.96,-711.96"/>
<polygon fill="black" stroke="black" points="567.46,-715.42 576.84,-710.49 566.43,-708.5 567.46,-715.42"/>
</g>
<!-- examples/chunk_preprocessed.c::free_strings() -->
<g id="node8" class="node">
<title>examples/chunk_preprocessed.c::free_strings()</title>
<path fill="#eeeeee" stroke="black" d="M466.62,-587.61C466.62,-587.61 401.88,-587.61 401.88,-587.61 395.88,-587.61 389.88,-581.61 389.88,-575.61 389.88,-575.61 389.88,-563.61 389.88,-563.61 389.88,-557.61 395.88,-551.61 401.88,-551.61 401.88,-551.61 466.62,-551.61 466.62,-551.61 472.62,-551.61 478.62,-557.61 478.62,-563.61 478.62,-563.61 478.62,-575.61 478.62,-575.61 478.62,-581.61 472.62,-587.61 466.62,-587.61"/>
<text text-anchor="middle" x="434.25" y="-564.56" font-family="Times,serif" font-size="14.00">free_strings()</text>
</g>
<!-- examples/chunk_preprocessed.c::free_chunk() -->
<g id="node15" class="node">
<title>examples/chunk_preprocessed.c::free_chunk()</title>
<path fill="#eeeeee" stroke="black" d="M674.88,-437.61C674.88,-437.61 613.12,-437.61 613.12,-437.61 607.12,-437.61 601.12,-431.61 601.12,-425.61 601.12,-425.61 601.12,-413.61 601.12,-413.61 601.12,-407.61 607.12,-401.61 613.12,-401.61 613.12,-401.61 674.88,-401.61 674.88,-401.61 680.88,-401.61 686.88,-407.61 686.88,-413.61 686.88,-413.61 686.88,-425.61 686.88,-425.61 686.88,-431.61 680.88,-437.61 674.88,-437.61"/>
<text text-anchor="middle" x="644" y="-414.56" font-family="Times,serif" font-size="14.00">free_chunk()</text>
</g>
<!-- examples/chunk_preprocessed.c::free_strings()&#45;&#45;examples/chunk_preprocessed.c::free_chunk() -->
<g id="edge10" class="edge">
<title>examples/chunk_preprocessed.c::free_strings()&#45;&#45;examples/chunk_preprocessed.c::free_chunk()</title>
<path fill="none" stroke="black" d="M478.86,-561.59C494.56,-557.47 511.92,-551.4 526.25,-542.61 529.05,-540.9 584.82,-481.66 618.25,-446.03"/>
<polygon fill="black" stroke="black" points="620.49,-448.75 624.78,-439.06 615.39,-443.96 620.49,-448.75"/>
</g>
<!-- examples/chunk_preprocessed.c::deleteLast_chunk() -->
<g id="node9" class="node">
<title>examples/chunk_preprocessed.c::deleteLast_chunk()</title>
<path fill="#eeeeee" stroke="black" d="M482.38,-533.61C482.38,-533.61 386.12,-533.61 386.12,-533.61 380.12,-533.61 374.12,-527.61 374.12,-521.61 374.12,-521.61 374.12,-509.61 374.12,-509.61 374.12,-503.61 380.12,-497.61 386.12,-497.61 386.12,-497.61 482.38,-497.61 482.38,-497.61 488.38,-497.61 494.38,-503.61 494.38,-509.61 494.38,-509.61 494.38,-521.61 494.38,-521.61 494.38,-527.61 488.38,-533.61 482.38,-533.61"/>
<text text-anchor="middle" x="434.25" y="-510.56" font-family="Times,serif" font-size="14.00">deleteLast_chunk()</text>
</g>
<!-- examples/chunk_preprocessed.c::appendSpace_chunk()&#45;&#45;examples/reallocate_preprocessed.c::_reallocate() -->
<g id="edge11" class="edge">
<title>examples/chunk_preprocessed.c::appendSpace_chunk()&#45;&#45;examples/reallocate_preprocessed.c::_reallocate()</title>
<path fill="none" stroke="black" stroke-dasharray="5,2" d="M1407.91,-624.4C1433.73,-627.38 1462.77,-630.74 1487,-633.54"/>
<polygon fill="black" stroke="black" points="1486.28,-636.98 1496.61,-634.65 1487.08,-630.02 1486.28,-636.98"/>
</g>
<!-- examples/chunk_preprocessed.c::appendIndex_chunk() -->
<g id="node11" class="node">
<title>examples/chunk_preprocessed.c::appendIndex_chunk()</title>
<path fill="#eeeeee" stroke="black" d="M1223.5,-588.61C1223.5,-588.61 1113,-588.61 1113,-588.61 1107,-588.61 1101,-582.61 1101,-576.61 1101,-576.61 1101,-564.61 1101,-564.61 1101,-558.61 1107,-552.61 1113,-552.61 1113,-552.61 1223.5,-552.61 1223.5,-552.61 1229.5,-552.61 1235.5,-558.61 1235.5,-564.61 1235.5,-564.61 1235.5,-576.61 1235.5,-576.61 1235.5,-582.61 1229.5,-588.61 1223.5,-588.61"/>
<text text-anchor="middle" x="1168.25" y="-565.56" font-family="Times,serif" font-size="14.00">appendIndex_chunk()</text>
</g>
<!-- examples/chunk_preprocessed.c::appendIndex_chunk()&#45;&#45;examples/chunk_preprocessed.c::appendSpace_chunk() -->
<g id="edge12" class="edge">
<title>examples/chunk_preprocessed.c::appendIndex_chunk()&#45;&#45;examples/chunk_preprocessed.c::appendSpace_chunk()</title>
<path fill="none" stroke="black" d="M1235.66,-588.66C1243.68,-590.84 1251.93,-593.09 1260.1,-595.31"/>
<polygon fill="black" stroke="black" points="1259.14,-598.67 1269.71,-597.92 1260.98,-591.92 1259.14,-598.67"/>
</g>
<!-- examples/chunk_preprocessed.c::appendIndex_chunk()&#45;&#45;examples/reallocate_preprocessed.c::_reallocate() -->
<g id="edge13" class="edge">
<title>examples/chunk_preprocessed.c::appendIndex_chunk()&#45;&#45;examples/reallocate_preprocessed.c::_reallocate()</title>
<path fill="none" stroke="black" stroke-dasharray="5,2" d="M1235.93,-570.28C1285.96,-571.35 1355.8,-575.64 1415.5,-589.61 1441.67,-595.74 1469.53,-606.54 1492.21,-616.54"/>
<polygon fill="black" stroke="black" points="1490.64,-619.67 1501.2,-620.58 1493.52,-613.28 1490.64,-619.67"/>
</g>
<!-- examples/chunk_preprocessed.c::addIndex_chunk() -->
<g id="node12" class="node">
<title>examples/chunk_preprocessed.c::addIndex_chunk()</title>
<path fill="#eeeeee" stroke="black" d="M899,-571.61C899,-571.61 808,-571.61 808,-571.61 802,-571.61 796,-565.61 796,-559.61 796,-559.61 796,-547.61 796,-547.61 796,-541.61 802,-535.61 808,-535.61 808,-535.61 899,-535.61 899,-535.61 905,-535.61 911,-541.61 911,-547.61 911,-547.61 911,-559.61 911,-559.61 911,-565.61 905,-571.61 899,-571.61"/>
<text text-anchor="middle" x="853.5" y="-548.56" font-family="Times,serif" font-size="14.00">addIndex_chunk()</text>
</g>
<!-- examples/chunk_preprocessed.c::addIndex_chunk()&#45;&#45;examples/chunk_preprocessed.c::appendIndex_chunk() -->
<g id="edge14" class="edge">
<title>examples/chunk_preprocessed.c::addIndex_chunk()&#45;&#45;examples/chunk_preprocessed.c::appendIndex_chunk()</title>
<path fill="none" stroke="black" d="M911.34,-551.09C953.76,-549.81 1013.1,-549.33 1065,-553.61 1072.95,-554.27 1081.22,-555.21 1089.45,-556.31"/>
<polygon fill="black" stroke="black" points="1088.73,-559.75 1099.12,-557.7 1089.72,-552.82 1088.73,-559.75"/>
</g>
<!-- examples/chunk_preprocessed.c::addIndex_chunk()&#45;&#45;examples/chunk_preprocessed.c::add_chunk() -->
<g id="edge15" class="edge">
<title>examples/chunk_preprocessed.c::addIndex_chunk()&#45;&#45;examples/chunk_preprocessed.c::add_chunk()</title>
<path fill="none" stroke="black" d="M911.17,-562.76C929.94,-565.78 950.74,-569.14 969.2,-572.12"/>
<polygon fill="black" stroke="black" points="968.42,-575.54 978.85,-573.67 969.54,-568.63 968.42,-575.54"/>
</g>
<!-- examples/chunk_preprocessed.c::append_chunk() -->
<g id="node13" class="node">
<title>examples/chunk_preprocessed.c::append_chunk()</title>
<path fill="#eeeeee" stroke="black" d="M1208.12,-672.61C1208.12,-672.61 1128.38,-672.61 1128.38,-672.61 1122.38,-672.61 1116.38,-666.61 1116.38,-660.61 1116.38,-660.61 1116.38,-648.61 1116.38,-648.61 1116.38,-642.61 1122.38,-636.61 1128.38,-636.61 1128.38,-636.61 1208.12,-636.61 1208.12,-636.61 1214.12,-636.61 1220.12,-642.61 1220.12,-648.61 1220.12,-648.61 1220.12,-660.61 1220.12,-660.61 1220.12,-666.61 1214.12,-672.61 1208.12,-672.61"/>
<text text-anchor="middle" x="1168.25" y="-649.56" font-family="Times,serif" font-size="14.00">append_chunk()</text>
</g>
<!-- examples/chunk_preprocessed.c::append_chunk()&#45;&#45;examples/chunk_preprocessed.c::appendSpace_chunk() -->
<g id="edge16" class="edge">
<title>examples/chunk_preprocessed.c::append_chunk()&#45;&#45;examples/chunk_preprocessed.c::appendSpace_chunk()</title>
<path fill="none" stroke="black" d="M1220.49,-643.11C1232.96,-640.31 1246.57,-637.25 1259.98,-634.24"/>
<polygon fill="black" stroke="black" points="1260.7,-637.67 1269.69,-632.06 1259.17,-630.84 1260.7,-637.67"/>
</g>
<!-- examples/chunk_preprocessed.c::append_chunk()&#45;&#45;examples/reallocate_preprocessed.c::_reallocate() -->
<g id="edge17" class="edge">
<title>examples/chunk_preprocessed.c::append_chunk()&#45;&#45;examples/reallocate_preprocessed.c::_reallocate()</title>
<path fill="none" stroke="black" stroke-dasharray="5,2" d="M1220.36,-652.54C1290.48,-649.7 1415.86,-644.63 1486.85,-641.75"/>
<polygon fill="black" stroke="black" points="1486.81,-645.26 1496.66,-641.35 1486.53,-638.26 1486.81,-645.26"/>
</g>
<!-- examples/chunk_preprocessed.c::isValid_chunk() -->
<g id="node14" class="node">
<title>examples/chunk_preprocessed.c::isValid_chunk()</title>
<path fill="#eeeeee" stroke="black" d="M473.38,-371.61C473.38,-371.61 395.12,-371.61 395.12,-371.61 389.12,-371.61 383.12,-365.61 383.12,-359.61 383.12,-359.61 383.12,-347.61 383.12,-347.61 383.12,-341.61 389.12,-335.61 395.12,-335.61 395.12,-335.61 473.38,-335.61 473.38,-335.61 479.38,-335.61 485.38,-341.61 485.38,-347.61 485.38,-347.61 485.38,-359.61 485.38,-359.61 485.38,-365.61 479.38,-371.61 473.38,-371.61"/>
<text text-anchor="middle" x="434.25" y="-348.56" font-family="Times,serif" font-size="14.00">isValid_chunk()</text>
</g>
<!-- examples/chunk_preprocessed.c::flush_chunk() -->
<g id="node16" class="node">
<title>examples/chunk_preprocessed.c::flush_chunk()</title>
<path fill="#eeeeee" stroke="black" d="M468.12,-317.61C468.12,-317.61 400.38,-317.61 400.38,-317.61 394.38,-317.61 388.38,-311.61 388.38,-305.61 388.38,-305.61 388.38,-293.61 388.38,-293.61 388.38,-287.61 394.38,-281.61 400.38,-281.61 400.38,-281.61 468.12,-281.61 468.12,-281.61 474.12,-281.61 480.12,-287.61 480.12,-293.61 480.12,-293.61 480.12,-305.61 480.12,-305.61 480.12,-311.61 474.12,-317.61 468.12,-317.61"/>
<text text-anchor="middle" x="434.25" y="-294.56" font-family="Times,serif" font-size="14.00">flush_chunk()</text>
</g>
<!-- examples/chunk_preprocessed.c::constructEmpty_chunk() -->
<g id="node17" class="node">
<title>examples/chunk_preprocessed.c::constructEmpty_chunk()</title>
<path fill="#eeeeee" stroke="black" d="M497.75,-479.61C497.75,-479.61 370.75,-479.61 370.75,-479.61 364.75,-479.61 358.75,-473.61 358.75,-467.61 358.75,-467.61 358.75,-455.61 358.75,-455.61 358.75,-449.61 364.75,-443.61 370.75,-443.61 370.75,-443.61 497.75,-443.61 497.75,-443.61 503.75,-443.61 509.75,-449.61 509.75,-455.61 509.75,-455.61 509.75,-467.61 509.75,-467.61 509.75,-473.61 503.75,-479.61 497.75,-479.61"/>
<text text-anchor="middle" x="434.25" y="-456.56" font-family="Times,serif" font-size="14.00">constructEmpty_chunk()</text>
</g>
<!-- examples/chunk_preprocessed.c::add_chunk()&#45;&#45;examples/chunk_preprocessed.c::append_chunk() -->
<g id="edge18" class="edge">
<title>examples/chunk_preprocessed.c::add_chunk()&#45;&#45;examples/chunk_preprocessed.c::append_chunk()</title>
<path fill="none" stroke="black" d="M1059.68,-599.1C1078.47,-608.79 1101.69,-620.78 1121.74,-631.13"/>
<polygon fill="black" stroke="black" points="1120.06,-634.2 1130.55,-635.67 1123.27,-627.98 1120.06,-634.2"/>
</g>
<!-- examples/chunk_preprocessed.c::strlen_chunk() -->
<g id="node19" class="node">
<title>examples/chunk_preprocessed.c::strlen_chunk()</title>
<path fill="#eeeeee" stroke="black" d="M469.62,-425.61C469.62,-425.61 398.88,-425.61 398.88,-425.61 392.88,-425.61 386.88,-419.61 386.88,-413.61 386.88,-413.61 386.88,-401.61 386.88,-401.61 386.88,-395.61 392.88,-389.61 398.88,-389.61 398.88,-389.61 469.62,-389.61 469.62,-389.61 475.62,-389.61 481.62,-395.61 481.62,-401.61 481.62,-401.61 481.62,-413.61 481.62,-413.61 481.62,-419.61 475.62,-425.61 469.62,-425.61"/>
<text text-anchor="middle" x="434.25" y="-402.56" font-family="Times,serif" font-size="14.00">strlen_chunk()</text>
</g>
<!-- examples/chunkset_preprocessed.c::strlen_cset() -->
<g id="node21" class="node">
<title>examples/chunkset_preprocessed.c::strlen_cset()</title>
<path fill="#eeeeee" stroke="black" d="M107.75,-1212.61C107.75,-1212.61 49,-1212.61 49,-1212.61 43,-1212.61 37,-1206.61 37,-1200.61 37,-1200.61 37,-1188.61 37,-1188.61 37,-1182.61 43,-1176.61 49,-1176.61 49,-1176.61 107.75,-1176.61 107.75,-1176.61 113.75,-1176.61 119.75,-1182.61 119.75,-1188.61 119.75,-1188.61 119.75,-1200.61 119.75,-1200.61 119.75,-1206.61 113.75,-1212.61 107.75,-1212.61"/>
<text text-anchor="middle" x="78.38" y="-1189.56" font-family="Times,serif" font-size="14.00">strlen_cset()</text>
</g>
<!-- examples/chunkset_preprocessed.c::strlen_cset()&#45;&#45;examples/chunk_preprocessed.c::strlen_chunk() -->
<g id="edge19" class="edge">
<title>examples/chunkset_preprocessed.c::strlen_cset()&#45;&#45;examples/chunk_preprocessed.c::strlen_chunk()</title>
<path fill="none" stroke="black" stroke-dasharray="5,2" d="M120.05,-1183.98C128.05,-1180.08 135.57,-1174.79 140.75,-1167.61 190.17,-1099.22 148.71,-869.2 176.75,-789.61 214.07,-683.7 273.51,-682.67 315.75,-578.61 340.26,-518.24 299.6,-482.99 343.25,-434.61 351.87,-425.06 363.73,-418.83 376,-414.78"/>
<polygon fill="black" stroke="black" points="376.68,-418.23 385.37,-412.17 374.8,-411.48 376.68,-418.23"/>
</g>
<!-- examples/chunkset_preprocessed.c::isValid_cset() -->
<g id="node22" class="node">
<title>examples/chunkset_preprocessed.c::isValid_cset()</title>
<path fill="#eeeeee" stroke="black" d="M111.5,-1158.61C111.5,-1158.61 45.25,-1158.61 45.25,-1158.61 39.25,-1158.61 33.25,-1152.61 33.25,-1146.61 33.25,-1146.61 33.25,-1134.61 33.25,-1134.61 33.25,-1128.61 39.25,-1122.61 45.25,-1122.61 45.25,-1122.61 111.5,-1122.61 111.5,-1122.61 117.5,-1122.61 123.5,-1128.61 123.5,-1134.61 123.5,-1134.61 123.5,-1146.61 123.5,-1146.61 123.5,-1152.61 117.5,-1158.61 111.5,-1158.61"/>
<text text-anchor="middle" x="78.38" y="-1135.56" font-family="Times,serif" font-size="14.00">isValid_cset()</text>
</g>
<!-- examples/chunkset_preprocessed.c::isValid_cset()&#45;&#45;examples/chunk_preprocessed.c::isValid_chunk() -->
<g id="edge20" class="edge">
<title>examples/chunkset_preprocessed.c::isValid_cset()&#45;&#45;examples/chunk_preprocessed.c::isValid_chunk()</title>
<path fill="none" stroke="black" stroke-dasharray="5,2" d="M123.94,-1128.13C130.5,-1124.45 136.47,-1119.71 140.75,-1113.61 209.67,-1015.32 130.31,-685.31 176.75,-574.61 212.68,-488.98 257.56,-490.99 315.75,-418.61 328.81,-402.37 326.26,-392.69 343.25,-380.61 351.93,-374.44 362.05,-369.66 372.29,-365.96"/>
<polygon fill="black" stroke="black" points="373.1,-369.38 381.52,-362.96 370.93,-362.73 373.1,-369.38"/>
</g>
<!-- examples/chunkset_preprocessed.c::getKeyId_cset() -->
<g id="node23" class="node">
<title>examples/chunkset_preprocessed.c::getKeyId_cset()</title>
<path fill="#eeeeee" stroke="black" d="M117.88,-996.61C117.88,-996.61 38.87,-996.61 38.87,-996.61 32.88,-996.61 26.88,-990.61 26.88,-984.61 26.88,-984.61 26.88,-972.61 26.88,-972.61 26.88,-966.61 32.88,-960.61 38.88,-960.61 38.88,-960.61 117.88,-960.61 117.88,-960.61 123.88,-960.61 129.88,-966.61 129.88,-972.61 129.88,-972.61 129.88,-984.61 129.88,-984.61 129.88,-990.61 123.88,-996.61 117.88,-996.61"/>
<text text-anchor="middle" x="78.38" y="-973.56" font-family="Times,serif" font-size="14.00">getKeyId_cset()</text>
</g>
<!-- examples/chunkset_preprocessed.c::getKeyId_cset()&#45;&#45;examples/chunk_preprocessed.c::strlen_chunk() -->
<g id="edge21" class="edge">
<title>examples/chunkset_preprocessed.c::getKeyId_cset()&#45;&#45;examples/chunk_preprocessed.c::strlen_chunk()</title>
<path fill="none" stroke="black" stroke-dasharray="5,2" d="M130.19,-961.76C134.2,-958.88 137.82,-955.53 140.75,-951.61 215.17,-852.24 132.1,-790.45 176.75,-674.61 223.44,-553.48 238.19,-510.87 343.25,-434.61 352.85,-427.64 364.27,-422.45 375.69,-418.6"/>
<polygon fill="black" stroke="black" points="376.58,-421.98 385.13,-415.73 374.54,-415.29 376.58,-421.98"/>
</g>
<!-- examples/chunkset_preprocessed.c::getKeyId_cset()&#45;&#45;examples/chunk_preprocessed.c::get_chunk() -->
<g id="edge22" class="edge">
<title>examples/chunkset_preprocessed.c::getKeyId_cset()&#45;&#45;examples/chunk_preprocessed.c::get_chunk()</title>
<path fill="none" stroke="black" stroke-dasharray="5,2" d="M130.22,-962.19C134.27,-959.22 137.9,-955.73 140.75,-951.61 222.89,-833.07 107.24,-429.98 176.75,-303.61 220.59,-223.92 256.64,-212.38 343.25,-184.61 420.7,-159.78 465,-131.1 526.25,-184.61 570.5,-223.27 536.57,-393.53 561.75,-446.61 573.09,-470.52 593.42,-492.28 610.9,-508.06"/>
<polygon fill="black" stroke="black" points="608.22,-510.37 618.06,-514.31 612.83,-505.1 608.22,-510.37"/>
</g>
<!-- examples/hash_preprocessed.c::hash_str() -->
<g id="node32" class="node">
<title>examples/hash_preprocessed.c::hash_str()</title>
<path fill="#eeeeee" stroke="black" d="M457.25,-232.61C457.25,-232.61 411.25,-232.61 411.25,-232.61 405.25,-232.61 399.25,-226.61 399.25,-220.61 399.25,-220.61 399.25,-208.61 399.25,-208.61 399.25,-202.61 405.25,-196.61 411.25,-196.61 411.25,-196.61 457.25,-196.61 457.25,-196.61 463.25,-196.61 469.25,-202.61 469.25,-208.61 469.25,-208.61 469.25,-220.61 469.25,-220.61 469.25,-226.61 463.25,-232.61 457.25,-232.61"/>
<text text-anchor="middle" x="434.25" y="-209.56" font-family="Times,serif" font-size="14.00">hash_str()</text>
</g>
<!-- examples/chunkset_preprocessed.c::getKeyId_cset()&#45;&#45;examples/hash_preprocessed.c::hash_str() -->
<g id="edge23" class="edge">
<title>examples/chunkset_preprocessed.c::getKeyId_cset()&#45;&#45;examples/hash_preprocessed.c::hash_str()</title>
<path fill="none" stroke="black" stroke-dasharray="5,2" d="M130.18,-962.16C134.25,-959.2 137.88,-955.72 140.75,-951.61 212.34,-849.24 111.64,-497.23 176.75,-390.61 214.25,-329.21 262.68,-356.2 315.75,-307.61 331.13,-293.54 327.95,-283.77 343.25,-269.61 356.81,-257.07 373.67,-245.87 389.11,-236.9"/>
<polygon fill="black" stroke="black" points="390.68,-240.03 397.68,-232.08 387.25,-233.93 390.68,-240.03"/>
</g>
<!-- examples/chunkset_preprocessed.c::getKeyCount_cset() -->
<g id="node24" class="node">
<title>examples/chunkset_preprocessed.c::getKeyCount_cset()</title>
<path fill="#eeeeee" stroke="black" d="M128.75,-1050.61C128.75,-1050.61 28,-1050.61 28,-1050.61 22,-1050.61 16,-1044.61 16,-1038.61 16,-1038.61 16,-1026.61 16,-1026.61 16,-1020.61 22,-1014.61 28,-1014.61 28,-1014.61 128.75,-1014.61 128.75,-1014.61 134.75,-1014.61 140.75,-1020.61 140.75,-1026.61 140.75,-1026.61 140.75,-1038.61 140.75,-1038.61 140.75,-1044.61 134.75,-1050.61 128.75,-1050.61"/>
<text text-anchor="middle" x="78.38" y="-1027.56" font-family="Times,serif" font-size="14.00">getKeyCount_cset()</text>
</g>
<!-- examples/chunkset_preprocessed.c::getKey_cset() -->
<g id="node25" class="node">
<title>examples/chunkset_preprocessed.c::getKey_cset()</title>
<path fill="#eeeeee" stroke="black" d="M112.25,-888.61C112.25,-888.61 44.5,-888.61 44.5,-888.61 38.5,-888.61 32.5,-882.61 32.5,-876.61 32.5,-876.61 32.5,-864.61 32.5,-864.61 32.5,-858.61 38.5,-852.61 44.5,-852.61 44.5,-852.61 112.25,-852.61 112.25,-852.61 118.25,-852.61 124.25,-858.61 124.25,-864.61 124.25,-864.61 124.25,-876.61 124.25,-876.61 124.25,-882.61 118.25,-888.61 112.25,-888.61"/>
<text text-anchor="middle" x="78.38" y="-865.56" font-family="Times,serif" font-size="14.00">getKey_cset()</text>
</g>
<!-- examples/chunkset_preprocessed.c::getKey_cset()&#45;&#45;examples/chunk_preprocessed.c::get_chunk() -->
<g id="edge24" class="edge">
<title>examples/chunkset_preprocessed.c::getKey_cset()&#45;&#45;examples/chunk_preprocessed.c::get_chunk()</title>
<path fill="none" stroke="black" stroke-dasharray="5,2" d="M124.64,-857.84C130.95,-854.21 136.66,-849.56 140.75,-843.61 186.61,-777 118.16,-172.37 176.75,-116.61 289.27,-9.53 410.69,-12.82 526.25,-116.61 581.12,-165.9 531.06,-379.55 561.75,-446.61 572.76,-470.68 593.09,-492.43 610.65,-508.17"/>
<polygon fill="black" stroke="black" points="608,-510.51 617.85,-514.41 612.58,-505.22 608,-510.51"/>
</g>
<!-- examples/chunkset_preprocessed.c::free_cset() -->
<g id="node26" class="node">
<title>examples/chunkset_preprocessed.c::free_cset()</title>
<path fill="#eeeeee" stroke="black" d="M103.25,-834.61C103.25,-834.61 53.5,-834.61 53.5,-834.61 47.5,-834.61 41.5,-828.61 41.5,-822.61 41.5,-822.61 41.5,-810.61 41.5,-810.61 41.5,-804.61 47.5,-798.61 53.5,-798.61 53.5,-798.61 103.25,-798.61 103.25,-798.61 109.25,-798.61 115.25,-804.61 115.25,-810.61 115.25,-810.61 115.25,-822.61 115.25,-822.61 115.25,-828.61 109.25,-834.61 103.25,-834.61"/>
<text text-anchor="middle" x="78.38" y="-811.56" font-family="Times,serif" font-size="14.00">free_cset()</text>
</g>
<!-- examples/chunkset_preprocessed.c::free_cset()&#45;&#45;examples/chunk_preprocessed.c::free_chunk() -->
<g id="edge25" class="edge">
<title>examples/chunkset_preprocessed.c::free_cset()&#45;&#45;examples/chunk_preprocessed.c::free_chunk()</title>
<path fill="none" stroke="black" stroke-dasharray="5,2" d="M80.25,-798.34C85.8,-685.69 117.88,-88.55 176.75,-35.61 186.38,-26.95 521.52,-29.1 526.25,-32.61 585.25,-76.44 625.87,-307.66 638.68,-390.25"/>
<polygon fill="black" stroke="black" points="635.2,-390.68 640.17,-400.04 642.12,-389.63 635.2,-390.68"/>
</g>
<!-- examples/chunkset_preprocessed.c::flush_cset() -->
<g id="node27" class="node">
<title>examples/chunkset_preprocessed.c::flush_cset()</title>
<path fill="#eeeeee" stroke="black" d="M106.25,-1104.61C106.25,-1104.61 50.5,-1104.61 50.5,-1104.61 44.5,-1104.61 38.5,-1098.61 38.5,-1092.61 38.5,-1092.61 38.5,-1080.61 38.5,-1080.61 38.5,-1074.61 44.5,-1068.61 50.5,-1068.61 50.5,-1068.61 106.25,-1068.61 106.25,-1068.61 112.25,-1068.61 118.25,-1074.61 118.25,-1080.61 118.25,-1080.61 118.25,-1092.61 118.25,-1092.61 118.25,-1098.61 112.25,-1104.61 106.25,-1104.61"/>
<text text-anchor="middle" x="78.38" y="-1081.56" font-family="Times,serif" font-size="14.00">flush_cset()</text>
</g>
<!-- examples/chunkset_preprocessed.c::flush_cset()&#45;&#45;examples/chunk_preprocessed.c::flush_chunk() -->
<g id="edge26" class="edge">
<title>examples/chunkset_preprocessed.c::flush_cset()&#45;&#45;examples/chunk_preprocessed.c::flush_chunk()</title>
<path fill="none" stroke="black" stroke-dasharray="5,2" d="M118.67,-1076.88C127.26,-1072.91 135.38,-1067.36 140.75,-1059.61 222.04,-942.37 93.63,-534.57 176.75,-418.61 215.55,-364.48 262.76,-402.96 315.75,-362.61 331.77,-350.42 326.69,-338.07 343.25,-326.61 353.42,-319.58 365.46,-314.35 377.37,-310.46"/>
<polygon fill="black" stroke="black" points="378.16,-313.88 386.76,-307.69 376.17,-307.16 378.16,-313.88"/>
</g>
<!-- examples/chunkset_preprocessed.c::constructEmpty_cset() -->
<g id="node28" class="node">
<title>examples/chunkset_preprocessed.c::constructEmpty_cset()</title>
<path fill="#eeeeee" stroke="black" d="M303.75,-888.61C303.75,-888.61 188.75,-888.61 188.75,-888.61 182.75,-888.61 176.75,-882.61 176.75,-876.61 176.75,-876.61 176.75,-864.61 176.75,-864.61 176.75,-858.61 182.75,-852.61 188.75,-852.61 188.75,-852.61 303.75,-852.61 303.75,-852.61 309.75,-852.61 315.75,-858.61 315.75,-864.61 315.75,-864.61 315.75,-876.61 315.75,-876.61 315.75,-882.61 309.75,-888.61 303.75,-888.61"/>
<text text-anchor="middle" x="246.25" y="-865.56" font-family="Times,serif" font-size="14.00">constructEmpty_cset()</text>
</g>
<!-- examples/chunkset_preprocessed.c::constructEmpty_cset()&#45;&#45;examples/chunk_preprocessed.c::constructEmpty_chunk() -->
<g id="edge27" class="edge">
<title>examples/chunkset_preprocessed.c::constructEmpty_cset()&#45;&#45;examples/chunk_preprocessed.c::constructEmpty_chunk()</title>
<path fill="none" stroke="black" stroke-dasharray="5,2" d="M307.22,-852.33C310.43,-849.79 313.32,-846.9 315.75,-843.61 362.77,-779.98 293.6,-550.22 343.25,-488.61 345.09,-486.34 347.11,-484.24 349.28,-482.32"/>
<polygon fill="black" stroke="black" points="351.07,-485.35 357.09,-476.63 346.95,-479.69 351.07,-485.35"/>
</g>
<!-- examples/chunkset_preprocessed.c::determineNRows() -->
<g id="node31" class="node">
<title>examples/chunkset_preprocessed.c::determineNRows()</title>
<path fill="#eeeeee" stroke="black" d="M482.38,-841.61C482.38,-841.61 386.12,-841.61 386.12,-841.61 380.12,-841.61 374.12,-835.61 374.12,-829.61 374.12,-829.61 374.12,-817.61 374.12,-817.61 374.12,-811.61 380.12,-805.61 386.12,-805.61 386.12,-805.61 482.38,-805.61 482.38,-805.61 488.38,-805.61 494.38,-811.61 494.38,-817.61 494.38,-817.61 494.38,-829.61 494.38,-829.61 494.38,-835.61 488.38,-841.61 482.38,-841.61"/>
<text text-anchor="middle" x="434.25" y="-818.56" font-family="Times,serif" font-size="14.00">determineNRows()</text>
</g>
<!-- examples/chunkset_preprocessed.c::constructEmpty_cset()&#45;&#45;examples/chunkset_preprocessed.c::determineNRows() -->
<g id="edge28" class="edge">
<title>examples/chunkset_preprocessed.c::constructEmpty_cset()&#45;&#45;examples/chunkset_preprocessed.c::determineNRows()</title>
<path fill="none" stroke="black" d="M316.25,-853.18C331.47,-849.33 347.62,-845.25 362.89,-841.39"/>
<polygon fill="black" stroke="black" points="363.53,-844.84 372.37,-839 361.82,-838.05 363.53,-844.84"/>
</g>
<!-- examples/chunkset_preprocessed.c::addKey_cset() -->
<g id="node29" class="node">
<title>examples/chunkset_preprocessed.c::addKey_cset()</title>
<path fill="#eeeeee" stroke="black" d="M113.75,-942.61C113.75,-942.61 43,-942.61 43,-942.61 37,-942.61 31,-936.61 31,-930.61 31,-930.61 31,-918.61 31,-918.61 31,-912.61 37,-906.61 43,-906.61 43,-906.61 113.75,-906.61 113.75,-906.61 119.75,-906.61 125.75,-912.61 125.75,-918.61 125.75,-918.61 125.75,-930.61 125.75,-930.61 125.75,-936.61 119.75,-942.61 113.75,-942.61"/>
<text text-anchor="middle" x="78.38" y="-919.56" font-family="Times,serif" font-size="14.00">addKey_cset()</text>
</g>
<!-- examples/chunkset_preprocessed.c::addKey_cset()&#45;&#45;examples/chunk_preprocessed.c::add_chunk() -->
<g id="edge29" class="edge">
<title>examples/chunkset_preprocessed.c::addKey_cset()&#45;&#45;examples/chunk_preprocessed.c::add_chunk()</title>
<path fill="none" stroke="black" stroke-dasharray="5,2" d="M126.17,-910.95C131.87,-907.46 137,-903.09 140.75,-897.61 190.19,-825.51 113.71,-172.19 176.75,-111.61 182.19,-106.38 516.85,-106.87 526.25,-110.61 760.44,-204 947.49,-466.44 1004.17,-552.73"/>
<polygon fill="black" stroke="black" points="1001.22,-554.61 1009.6,-561.09 1007.09,-550.8 1001.22,-554.61"/>
</g>
<!-- examples/chunkset_preprocessed.c::addKey_cset()&#45;&#45;examples/chunk_preprocessed.c::get_chunk() -->
<g id="edge30" class="edge">
<title>examples/chunkset_preprocessed.c::addKey_cset()&#45;&#45;examples/chunk_preprocessed.c::get_chunk()</title>
<path fill="none" stroke="black" stroke-dasharray="5,2" d="M126.16,-910.95C131.86,-907.45 136.99,-903.08 140.75,-897.61 187.58,-829.51 116.91,-211.63 176.75,-154.61 232.98,-101.04 468.11,-103.12 526.25,-154.61 575.18,-197.96 534.14,-387.37 561.75,-446.61 572.93,-470.6 593.25,-492.36 610.77,-508.11"/>
<polygon fill="black" stroke="black" points="608.11,-510.44 617.96,-514.36 612.71,-505.16 608.11,-510.44"/>
</g>
<!-- examples/chunkset_preprocessed.c::adjust() -->
<g id="node30" class="node">
<title>examples/chunkset_preprocessed.c::adjust()</title>
<path fill="#eeeeee" stroke="black" d="M262.88,-834.61C262.88,-834.61 229.62,-834.61 229.62,-834.61 223.62,-834.61 217.62,-828.61 217.62,-822.61 217.62,-822.61 217.62,-810.61 217.62,-810.61 217.62,-804.61 223.62,-798.61 229.62,-798.61 229.62,-798.61 262.88,-798.61 262.88,-798.61 268.88,-798.61 274.88,-804.61 274.88,-810.61 274.88,-810.61 274.88,-822.61 274.88,-822.61 274.88,-828.61 268.88,-834.61 262.88,-834.61"/>
<text text-anchor="middle" x="246.25" y="-811.56" font-family="Times,serif" font-size="14.00">adjust()</text>
</g>
<!-- examples/chunkset_preprocessed.c::addKey_cset()&#45;&#45;examples/chunkset_preprocessed.c::adjust() -->
<g id="edge31" class="edge">
<title>examples/chunkset_preprocessed.c::addKey_cset()&#45;&#45;examples/chunkset_preprocessed.c::adjust()</title>
<path fill="none" stroke="black" d="M125.98,-907.57C131.24,-904.67 136.29,-901.36 140.75,-897.61 162.84,-879.06 154.31,-861.73 176.75,-843.61 185.46,-836.58 196.23,-831.2 206.63,-827.17"/>
<polygon fill="black" stroke="black" points="207.53,-830.56 215.8,-823.94 205.2,-823.96 207.53,-830.56"/>
</g>
<!-- examples/chunkset_preprocessed.c::addKey_cset()&#45;&#45;examples/hash_preprocessed.c::hash_str() -->
<g id="edge32" class="edge">
<title>examples/chunkset_preprocessed.c::addKey_cset()&#45;&#45;examples/hash_preprocessed.c::hash_str()</title>
<path fill="none" stroke="black" stroke-dasharray="5,2" d="M126.08,-910.89C131.79,-907.4 136.95,-903.05 140.75,-897.61 211.61,-796.35 108.36,-445.56 176.75,-342.61 225.26,-269.59 328.45,-236.46 388.11,-222.89"/>
<polygon fill="black" stroke="black" points="388.57,-226.37 397.6,-220.83 387.08,-219.53 388.57,-226.37"/>
</g>
<!-- examples/chunkset_preprocessed.c::addKey_cset()&#45;&#45;examples/reallocate_preprocessed.c::_reallocate() -->
<g id="edge33" class="edge">
<title>examples/chunkset_preprocessed.c::addKey_cset()&#45;&#45;examples/reallocate_preprocessed.c::_reallocate()</title>
<path fill="none" stroke="black" stroke-dasharray="5,2" d="M126.18,-910.96C131.88,-907.46 137,-903.09 140.75,-897.61 190.68,-824.77 118.8,-170.25 176.75,-103.61 315.08,55.45 432.2,-16.61 643,-16.61 643,-16.61 643,-16.61 1169.25,-16.61 1449.03,-16.61 1522.21,-486.58 1536.61,-610.15"/>
<polygon fill="black" stroke="black" points="1533.1,-610.25 1537.69,-619.8 1540.06,-609.48 1533.1,-610.25"/>
</g>
<!-- examples/chunkset_preprocessed.c::adjust()&#45;&#45;examples/chunk_preprocessed.c::strlen_chunk() -->
<g id="edge34" class="edge">
<title>examples/chunkset_preprocessed.c::adjust()&#45;&#45;examples/chunk_preprocessed.c::strlen_chunk()</title>
<path fill="none" stroke="black" stroke-dasharray="5,2" d="M261.91,-798.12C278.12,-776.56 303.56,-739.2 315.75,-702.61 334.68,-645.82 305.1,-480.76 343.25,-434.61 351.53,-424.6 363.37,-418.2 375.76,-414.14"/>
<polygon fill="black" stroke="black" points="376.53,-417.56 385.25,-411.54 374.68,-410.81 376.53,-417.56"/>
</g>
<!-- examples/chunkset_preprocessed.c::adjust()&#45;&#45;examples/chunk_preprocessed.c::get_chunk() -->
<g id="edge35" class="edge">
<title>examples/chunkset_preprocessed.c::adjust()&#45;&#45;examples/chunk_preprocessed.c::get_chunk()</title>
<path fill="none" stroke="black" stroke-dasharray="5,2" d="M274.98,-810.83C294.15,-806.84 320.25,-801.4 343.25,-796.61 424.58,-779.7 467.41,-817.25 526.25,-758.61 580.31,-704.75 519.7,-654.3 561.75,-590.61 570.3,-577.67 582.89,-566.78 595.62,-558.1"/>
<polygon fill="black" stroke="black" points="597.5,-561.05 604.04,-552.71 593.73,-555.15 597.5,-561.05"/>
</g>
<!-- examples/chunkset_preprocessed.c::adjust()&#45;&#45;examples/chunkset_preprocessed.c::determineNRows() -->
<g id="edge36" class="edge">
<title>examples/chunkset_preprocessed.c::adjust()&#45;&#45;examples/chunkset_preprocessed.c::determineNRows()</title>
<path fill="none" stroke="black" d="M275.1,-817.66C298.1,-818.53 331.79,-819.8 362.18,-820.94"/>
<polygon fill="black" stroke="black" points="361.99,-824.44 372.12,-821.31 362.26,-817.44 361.99,-824.44"/>
</g>
<!-- examples/chunkset_preprocessed.c::adjust()&#45;&#45;examples/hash_preprocessed.c::hash_str() -->
<g id="edge37" class="edge">
<title>examples/chunkset_preprocessed.c::adjust()&#45;&#45;examples/hash_preprocessed.c::hash_str()</title>
<path fill="none" stroke="black" stroke-dasharray="5,2" d="M250.03,-798.32C264.14,-705.74 327.83,-292.25 343.25,-269.61 354.35,-253.32 372.03,-241.01 388.79,-232.2"/>
<polygon fill="black" stroke="black" points="390.25,-235.39 397.69,-227.84 387.17,-229.1 390.25,-235.39"/>
</g>
<!-- examples/chunkset_preprocessed.c::adjust()&#45;&#45;examples/reallocate_preprocessed.c::_reallocate() -->
<g id="edge38" class="edge">
<title>examples/chunkset_preprocessed.c::adjust()&#45;&#45;examples/reallocate_preprocessed.c::_reallocate()</title>
<path fill="none" stroke="black" stroke-dasharray="5,2" d="M275.32,-828.44C294.2,-835.92 319.83,-845.17 343.25,-850.61 473.9,-880.97 508.87,-885.61 643,-885.61 643,-885.61 643,-885.61 1169.25,-885.61 1287.21,-885.61 1341.62,-878.57 1415.5,-786.61 1449.37,-744.46 1399,-706.5 1435.5,-666.61 1448.61,-652.29 1468.26,-645.14 1486.96,-641.71"/>
<polygon fill="black" stroke="black" points="1487.24,-645.21 1496.62,-640.28 1486.21,-638.29 1487.24,-645.21"/>
</g>
<!-- examples/prime_preprocessed.c::nextPrime() -->
<g id="node33" class="node">
<title>examples/prime_preprocessed.c::nextPrime()</title>
<path fill="#eeeeee" stroke="black" d="M672.62,-834.61C672.62,-834.61 615.38,-834.61 615.38,-834.61 609.38,-834.61 603.38,-828.61 603.38,-822.61 603.38,-822.61 603.38,-810.61 603.38,-810.61 603.38,-804.61 609.38,-798.61 615.38,-798.61 615.38,-798.61 672.62,-798.61 672.62,-798.61 678.62,-798.61 684.62,-804.61 684.62,-810.61 684.62,-810.61 684.62,-822.61 684.62,-822.61 684.62,-828.61 678.62,-834.61 672.62,-834.61"/>
<text text-anchor="middle" x="644" y="-811.56" font-family="Times,serif" font-size="14.00">nextPrime()</text>
</g>
<!-- examples/chunkset_preprocessed.c::determineNRows()&#45;&#45;examples/prime_preprocessed.c::nextPrime() -->
<g id="edge39" class="edge">
<title>examples/chunkset_preprocessed.c::determineNRows()&#45;&#45;examples/prime_preprocessed.c::nextPrime()</title>
<path fill="none" stroke="black" stroke-dasharray="5,2" d="M494.78,-821.61C525.48,-820.57 562.54,-819.33 591.92,-818.34"/>
<polygon fill="black" stroke="black" points="591.79,-821.84 601.67,-818.01 591.56,-814.85 591.79,-821.84"/>
</g>
<!-- examples/prime_preprocessed.c::isPrime() -->
<g id="node34" class="node">
<title>examples/prime_preprocessed.c::isPrime()</title>
<path fill="#eeeeee" stroke="black" d="M875,-834.61C875,-834.61 832,-834.61 832,-834.61 826,-834.61 820,-828.61 820,-822.61 820,-822.61 820,-810.61 820,-810.61 820,-804.61 826,-798.61 832,-798.61 832,-798.61 875,-798.61 875,-798.61 881,-798.61 887,-804.61 887,-810.61 887,-810.61 887,-822.61 887,-822.61 887,-828.61 881,-834.61 875,-834.61"/>
<text text-anchor="middle" x="853.5" y="-811.56" font-family="Times,serif" font-size="14.00">isPrime()</text>
</g>
<!-- examples/prime_preprocessed.c::nextPrime()&#45;&#45;examples/prime_preprocessed.c::isPrime() -->
<g id="edge40" class="edge">
<title>examples/prime_preprocessed.c::nextPrime()&#45;&#45;examples/prime_preprocessed.c::isPrime()</title>
<path fill="none" stroke="black" d="M685.01,-816.61C720.39,-816.61 771.93,-816.61 808.48,-816.61"/>
<polygon fill="black" stroke="black" points="808.26,-820.11 818.26,-816.61 808.26,-813.11 808.26,-820.11"/>
</g>
<!-- examples/reallocate_preprocessed.c::recalloc() -->
<g id="node35" class="node">
<title>examples/reallocate_preprocessed.c::recalloc()</title>
<path fill="#eeeeee" stroke="black" d="M1562.5,-711.61C1562.5,-711.61 1518.75,-711.61 1518.75,-711.61 1512.75,-711.61 1506.75,-705.61 1506.75,-699.61 1506.75,-699.61 1506.75,-687.61 1506.75,-687.61 1506.75,-681.61 1512.75,-675.61 1518.75,-675.61 1518.75,-675.61 1562.5,-675.61 1562.5,-675.61 1568.5,-675.61 1574.5,-681.61 1574.5,-687.61 1574.5,-687.61 1574.5,-699.61 1574.5,-699.61 1574.5,-705.61 1568.5,-711.61 1562.5,-711.61"/>
<text text-anchor="middle" x="1540.62" y="-688.56" font-family="Times,serif" font-size="14.00">recalloc()</text>
</g>
</g>
</svg>
